<?xml version="1.0" standalone="no"?>
<!DOCTYPE svg PUBLIC "-//W3C//DTD SVG 20010904//EN"
 "http://www.w3.org/TR/2001/REC-SVG-20010904/DTD/svg10.dtd">
<svg version="1.0" xmlns="http://www.w3.org/2000/svg"
 width="3152.000000pt" height="2068.000000pt" viewBox="0 0 3152.000000 2068.000000"
 preserveAspectRatio="xMidYMid meet">

<g transform="translate(0.000000,2068.000000) scale(0.100000,-0.100000)"
fill="#000000" stroke="none">
<path d="M23603 19760 c-113 -23 -230 -117 -280 -227 -23 -50 -27 -72 -27
-158 -1 -92 1 -105 31 -167 39 -84 109 -155 188 -194 l60 -29 950 0 950 0 60
30 c81 41 149 110 188 193 29 61 32 76 32 162 -1 75 -5 107 -24 152 -45 114
-162 210 -289 237 -63 13 -1772 14 -1839 1z m461 -316 c30 -12 18 -34 -19 -34
-28 0 -36 -4 -41 -24 -11 -44 3 -66 42 -66 24 0 34 -5 34 -15 0 -28 -78 -23
-102 7 -52 61 13 160 86 132z m165 -4 c54 -28 47 -129 -10 -149 -67 -23 -122
38 -98 108 15 43 68 63 108 41z m154 -42 l32 -52 3 52 c2 37 7 52 18 52 11 0
14 -17 14 -80 0 -77 -1 -80 -23 -80 -18 0 -30 12 -50 48 l-27 47 0 -47 c0 -41
-3 -48 -20 -48 -18 0 -20 7 -20 73 0 41 3 77 7 80 16 17 36 3 66 -45z m225 34
c2 -7 -5 -16 -17 -19 -18 -5 -21 -13 -21 -64 0 -52 -2 -59 -20 -59 -18 0 -20
7 -20 60 0 53 -2 60 -20 60 -13 0 -20 7 -20 20 0 19 5 21 57 18 36 -2 58 -8
61 -16z m144 -62 c15 -41 28 -76 28 -77 0 -11 -42 0 -46 12 -4 8 -17 15 -30
15 -14 0 -27 -7 -30 -15 -6 -14 -44 -22 -44 -9 0 3 12 39 26 80 23 63 30 75
48 72 15 -2 27 -21 48 -78z m152 74 c30 -12 18 -34 -19 -34 -29 0 -36 -4 -41
-27 -9 -35 7 -57 45 -61 35 -4 42 -27 10 -35 -34 -9 -76 12 -89 43 -29 69 30
139 94 114z m166 -14 c0 -13 -7 -20 -20 -20 -18 0 -20 -7 -20 -60 0 -53 -2
-60 -20 -60 -18 0 -20 7 -20 60 0 46 -3 60 -14 60 -8 0 -18 5 -21 10 -12 20 7
30 61 30 47 0 54 -2 54 -20z"/>
<path d="M24164 19396 c-3 -8 -4 -27 -2 -43 4 -35 41 -45 58 -14 17 32 2 71
-26 71 -14 0 -27 -6 -30 -14z"/>
<path d="M24697 19385 c-8 -20 -4 -29 11 -24 5 2 6 13 2 23 -6 19 -7 19 -13 1z"/>
<path d="M6120 19644 c-96 -30 -205 -63 -242 -75 l-68 -20 0 -179 0 -178 263
88 c292 98 333 116 370 160 62 73 36 193 -53 238 -24 12 -56 22 -70 21 -14 0
-104 -25 -200 -55z"/>
<path d="M6700 19370 l0 -200 25 0 c13 0 28 8 33 17 9 16 11 16 36 0 35 -24
101 -22 137 4 78 55 80 178 3 238 -32 25 -109 28 -138 6 -11 -8 -23 -15 -28
-15 -4 0 -8 34 -8 75 l0 75 -30 0 -30 0 0 -200z m175 20 c15 -6 32 -24 40 -44
38 -91 -75 -165 -135 -88 -29 36 -26 78 9 113 32 31 45 34 86 19z"/>
<path d="M7032 19373 l3 -198 28 -3 27 -3 0 200 0 201 -30 0 -30 0 2 -197z"/>
<path d="M7144 19556 c-12 -31 0 -51 30 -51 36 0 56 26 37 49 -17 20 -60 21
-67 2z"/>
<path d="M7562 19373 l3 -198 30 0 c30 0 30 0 33 63 2 34 6 62 11 62 4 0 31
-29 59 -65 47 -58 57 -65 87 -65 19 0 35 3 35 8 -1 4 -27 38 -60 76 l-59 69
49 57 c28 31 50 60 50 63 0 4 -15 7 -33 7 -28 0 -41 -8 -76 -50 -23 -27 -46
-50 -52 -50 -5 0 -9 48 -9 110 l0 110 -35 0 -35 0 2 -197z"/>
<path d="M20615 19470 c-4 -6 -3 -16 3 -22 6 -6 12 -6 17 2 4 6 3 16 -3 22 -6
6 -12 6 -17 -2z"/>
<path d="M20990 19440 c0 -37 -2 -40 -19 -30 -29 15 -39 13 -66 -15 -29 -28
-33 -79 -10 -113 14 -18 24 -21 70 -19 l55 2 0 108 c0 88 -3 107 -15 107 -11
0 -15 -11 -15 -40z m-2 -93 c4 -44 -12 -69 -42 -65 -28 4 -43 49 -28 83 10 21
18 26 40 23 23 -3 27 -8 30 -41z"/>
<path d="M18637 19463 c-4 -3 -7 -51 -7 -105 0 -79 3 -98 14 -98 11 0 16 14
18 48 l3 47 50 0 50 0 3 -47 c2 -34 7 -48 18 -48 12 0 14 17 12 102 -2 70 -7
103 -15 106 -9 2 -13 -10 -13 -42 l0 -46 -55 0 -55 0 0 45 c0 42 -7 54 -23 38z"/>
<path d="M20450 19365 c0 -85 3 -105 14 -105 10 0 16 14 18 43 3 41 4 42 41
45 20 2 37 7 37 12 0 5 -17 10 -37 12 -35 3 -38 6 -41 36 -3 32 -3 32 42 32
34 0 46 4 46 15 0 12 -13 15 -60 15 l-60 0 0 -105z"/>
<path d="M7144 19437 c-2 -7 -3 -69 -2 -138 l3 -124 30 0 30 0 3 138 3 137
-31 0 c-17 0 -33 -6 -36 -13z"/>
<path d="M7260 19310 l0 -140 30 0 30 0 0 79 c0 44 4 91 10 105 20 53 96 60
118 11 7 -14 12 -64 12 -110 l0 -85 30 0 30 0 0 111 c0 109 0 111 -29 140 -37
36 -97 40 -141 9 l-29 -20 -6 20 c-4 13 -15 20 -31 20 l-24 0 0 -140z"/>
<path d="M7877 19429 c-81 -61 -74 -199 12 -244 17 -8 50 -15 75 -15 36 0 52
6 81 31 20 18 34 37 32 43 -5 14 -56 8 -81 -10 -40 -28 -101 -5 -108 41 -3 19
4 20 102 25 l105 5 -3 29 c-5 45 -29 84 -62 101 -43 22 -119 19 -153 -6z m133
-51 c11 -12 19 -27 17 -33 -2 -5 -31 -11 -65 -13 -51 -2 -63 0 -69 14 -9 23
31 54 68 54 16 0 37 -9 49 -22z"/>
<path d="M8132 19313 l3 -138 26 -3 c26 -3 26 -3 31 82 5 96 21 126 70 126 25
0 28 3 28 35 0 42 -22 47 -63 15 -14 -11 -27 -20 -30 -20 -3 0 -7 9 -10 20 -3
14 -14 20 -31 20 l-27 0 3 -137z"/>
<path d="M18893 19410 c-45 -18 -58 -95 -23 -130 28 -28 84 -27 104 2 47 66
-10 156 -81 128z m62 -69 c0 -31 -5 -47 -17 -55 -37 -23 -68 23 -53 81 5 20
11 24 38 21 31 -3 32 -5 32 -47z"/>
<path d="M19100 19410 c-8 -5 -25 -7 -37 -3 -22 5 -23 3 -23 -71 0 -61 3 -76
15 -76 11 0 15 13 15 53 0 58 12 77 47 77 22 0 23 -4 23 -65 0 -51 3 -65 15
-65 11 0 15 12 15 46 0 57 14 84 44 84 29 0 36 -16 36 -81 0 -27 5 -49 10 -49
6 0 10 30 10 70 0 60 -3 71 -21 80 -15 9 -28 9 -48 0 -19 -8 -35 -8 -55 0 -32
12 -28 12 -46 0z"/>
<path d="M19362 19410 c-44 -18 -52 -99 -12 -135 20 -18 91 -18 97 1 2 6 -11
8 -34 6 -27 -3 -40 0 -50 14 -21 29 -16 34 42 34 49 0 55 2 55 20 0 23 -42 70
-62 69 -7 0 -23 -4 -36 -9z m56 -22 c22 -22 13 -38 -22 -38 -41 0 -52 12 -30
34 18 19 36 20 52 4z"/>
<path d="M20617 19413 c-4 -3 -7 -39 -7 -80 0 -58 3 -73 15 -73 12 0 15 16 15
80 0 73 -6 91 -23 73z"/>
<path d="M20700 19340 c0 -64 3 -80 15 -80 11 0 15 13 15 53 0 63 10 80 41 75
22 -3 24 -8 27 -65 3 -55 6 -63 22 -63 18 0 19 6 16 67 -6 86 -33 111 -89 82
-16 -9 -22 -9 -25 0 -2 6 -8 11 -13 11 -5 0 -9 -36 -9 -80z"/>
<path d="M21141 19408 c0 -7 13 -44 28 -83 31 -75 28 -102 -10 -112 -27 -7
-24 -23 4 -23 34 0 50 23 86 120 34 92 37 105 20 105 -6 0 -21 -27 -33 -59
-24 -63 -26 -63 -46 -1 -14 43 -27 65 -41 65 -5 0 -9 -6 -8 -12z"/>
<path d="M21351 19408 c-44 -23 -52 -96 -15 -132 16 -16 71 -21 90 -8 17 11
34 48 34 75 0 53 -62 89 -109 65z m70 -42 c22 -48 -8 -95 -52 -81 -45 15 -31
105 16 105 17 0 29 -8 36 -24z"/>
<path d="M21507 19414 c-10 -11 -8 -99 3 -128 9 -25 13 -26 70 -24 l60 3 0 78
c0 59 -3 78 -12 75 -8 -3 -14 -27 -16 -58 -4 -60 -15 -80 -44 -80 -23 0 -30
16 -32 82 -1 48 -13 68 -29 52z"/>
<path d="M21700 19340 c0 -64 3 -80 15 -80 11 0 15 12 15 49 0 51 17 81 46 81
8 0 14 7 14 15 0 18 -13 19 -41 3 -17 -10 -23 -10 -26 0 -13 34 -23 3 -23 -68z"/>
<path d="M21942 19410 c-12 -5 -27 -20 -33 -34 -14 -29 -4 -89 16 -106 18 -15
87 -9 93 9 3 9 -2 11 -17 6 -33 -10 -59 3 -66 35 -9 41 9 70 45 70 33 0 48 15
24 24 -20 8 -34 7 -62 -4z"/>
<path d="M22088 19413 c-29 -7 -21 -24 10 -21 33 2 52 -8 52 -28 0 -9 -11 -14
-34 -14 -38 0 -66 -21 -66 -49 0 -30 24 -41 79 -39 l51 2 0 62 c0 84 -23 105
-92 87z m62 -96 c0 -18 -21 -37 -41 -37 -22 0 -33 16 -25 35 7 19 66 20 66 2z"/>
<path d="M22240 19340 c0 -64 3 -80 15 -80 12 0 15 13 15 56 0 53 2 56 30 67
17 6 30 17 30 24 0 16 -15 17 -43 2 -16 -9 -22 -9 -25 0 -2 6 -8 11 -13 11 -5
0 -9 -36 -9 -80z"/>
<path d="M12960 17255 l0 -355 70 0 70 0 0 355 0 355 -70 0 -70 0 0 -355z"/>
<path d="M13267 17592 c-40 -44 -8 -112 53 -112 62 0 96 74 52 113 -25 23 -85
22 -105 -1z"/>
<path d="M20462 17480 c5 -121 1 -150 -19 -117 -31 52 -149 69 -213 31 -50
-29 -88 -89 -101 -159 -23 -124 14 -267 80 -314 62 -44 159 -40 215 9 19 17
37 30 40 30 4 0 12 -13 17 -30 10 -28 14 -30 65 -30 l54 0 0 355 0 355 -71 0
-72 0 5 -130z m-30 -199 l33 -29 0 -100 c0 -91 -2 -103 -23 -125 -50 -53 -140
-38 -167 27 -19 45 -19 146 -1 190 29 70 102 87 158 37z"/>
<path d="M21632 17480 c2 -72 0 -130 -3 -130 -4 0 -12 7 -20 16 -44 53 -162
65 -227 21 -60 -39 -86 -101 -90 -213 -4 -100 7 -154 40 -204 41 -59 72 -75
148 -75 62 0 71 3 110 34 23 18 42 31 44 30 1 -2 7 -16 14 -31 10 -25 17 -28
62 -28 l50 0 0 355 0 355 -66 0 -66 0 4 -130z m-53 -185 c39 -19 56 -67 55
-150 0 -88 -21 -130 -68 -143 -77 -22 -130 20 -141 113 -18 142 57 231 154
180z"/>
<path d="M9943 17553 c-4 -10 -57 -161 -118 -335 l-112 -318 73 0 73 0 25 78
24 77 126 3 125 3 24 -78 23 -78 78 -3 c50 -2 76 1 72 7 -4 6 -56 149 -115
318 -60 169 -112 316 -116 326 -6 14 -20 17 -91 17 -71 0 -86 -3 -91 -17z
m141 -237 c20 -65 36 -125 36 -132 0 -11 -20 -14 -85 -14 -57 0 -85 4 -85 11
0 10 60 221 76 269 8 22 16 4 58 -134z"/>
<path d="M14115 17458 c4 -62 9 -116 12 -120 2 -5 22 -8 43 -8 l39 0 5 53 c3
28 8 82 11 120 l7 67 -62 0 -62 0 7 -112z"/>
<path d="M11585 17465 c-15 -45 -26 -60 -57 -77 -30 -17 -38 -28 -38 -50 0
-24 4 -28 29 -28 l28 0 5 -159 c5 -179 16 -212 78 -243 40 -20 130 -24 179 -7
29 10 31 14 31 60 0 49 0 49 -27 43 -16 -3 -34 -7 -41 -10 -16 -5 -65 14 -74
29 -4 7 -8 74 -8 150 l0 137 70 0 70 0 0 50 0 50 -70 0 -70 0 0 55 0 55 -43 0
-43 0 -19 -55z"/>
<path d="M17153 17503 c-24 -71 -43 -100 -76 -118 -29 -15 -37 -26 -37 -47 0
-25 3 -28 35 -28 l35 0 0 -152 c0 -184 14 -228 77 -255 38 -15 165 -15 191 1
7 4 12 29 12 55 l0 48 -42 -7 c-49 -9 -82 1 -98 29 -6 13 -10 70 -8 148 l3
128 73 3 72 3 0 49 0 50 -75 0 -75 0 0 55 0 55 -40 0 c-30 0 -42 -5 -47 -17z"/>
<path d="M11147 17406 c-83 -23 -123 -85 -106 -163 12 -57 36 -80 131 -126
103 -49 123 -66 113 -96 -10 -32 -68 -43 -145 -27 -36 8 -73 17 -82 21 -16 6
-18 0 -18 -48 l0 -56 54 -12 c75 -16 204 -8 246 17 48 28 72 66 77 121 7 75
-20 107 -142 168 -86 43 -100 53 -100 75 0 46 46 50 181 14 17 -5 24 2 38 37
9 23 13 45 9 49 -35 31 -185 46 -256 26z"/>
<path d="M12174 17401 c-22 -10 -52 -34 -67 -52 l-26 -33 -9 24 c-5 14 -11 34
-13 45 -4 16 -13 21 -57 23 l-52 3 0 -255 0 -256 69 0 70 0 3 160 3 160 32 31
c25 26 42 33 85 37 29 3 56 10 60 16 4 6 8 35 8 64 l0 52 -32 0 c-18 0 -51 -9
-74 -19z"/>
<path d="M12520 17414 c-41 -8 -110 -35 -110 -44 0 -15 30 -80 38 -80 4 0 29
7 56 15 100 30 166 7 166 -59 l0 -33 -94 -5 c-162 -9 -220 -52 -221 -165 0
-108 59 -158 178 -150 58 4 74 9 107 36 21 17 42 31 45 31 3 0 11 -13 16 -30
10 -28 15 -30 60 -30 l49 0 0 173 c-1 237 -13 281 -94 321 -38 19 -144 29
-196 20z m150 -318 c0 -54 -27 -92 -76 -105 -38 -11 -59 -6 -86 17 -37 32 -9
105 45 116 12 3 31 7 42 9 11 3 32 5 48 6 25 1 27 -1 27 -43z"/>
<path d="M13680 17414 c-23 -4 -111 -34 -118 -39 -6 -5 38 -85 46 -85 4 0 29
7 56 15 27 8 64 15 83 15 43 0 83 -37 83 -78 l0 -29 -93 -5 c-156 -8 -217 -49
-224 -151 -5 -60 16 -109 59 -140 58 -43 196 -29 243 23 24 27 30 25 45 -10
11 -28 16 -30 61 -30 l49 0 -1 163 c0 245 -13 289 -91 329 -36 19 -148 31
-198 22z m150 -318 c0 -54 -27 -92 -76 -105 -70 -19 -116 19 -100 84 9 36 65
60 149 64 25 1 27 -1 27 -43z"/>
<path d="M14456 17406 c-27 -8 -61 -27 -79 -45 -27 -27 -31 -37 -31 -86 0 -77
20 -101 136 -157 53 -26 101 -55 107 -66 14 -26 -9 -58 -47 -65 -25 -5 -110 8
-180 29 -22 6 -23 5 -20 -47 l3 -53 45 -14 c66 -20 216 -12 259 13 55 32 76
69 76 130 0 76 -21 100 -140 160 -104 52 -125 76 -89 102 25 18 75 16 135 -6
l50 -20 20 46 c11 26 16 49 12 53 -35 31 -185 46 -257 26z"/>
<path d="M15355 17415 c-5 -2 -22 -6 -37 -9 -15 -4 -43 -20 -62 -36 -36 -32
-39 -31 -50 13 -6 25 -10 27 -56 27 l-50 0 0 -255 0 -255 64 0 64 0 4 163 c5
203 23 247 103 247 73 0 85 -36 85 -246 l0 -164 68 0 67 0 1 163 c0 172 10
213 53 237 31 16 77 12 102 -9 23 -19 24 -24 27 -205 l3 -186 71 0 70 0 -3
203 c-4 181 -6 206 -24 237 -31 51 -78 75 -150 74 -65 -1 -94 -12 -138 -52
l-27 -26 -16 22 c-8 12 -27 28 -42 36 -28 14 -109 28 -127 21z"/>
<path d="M16180 17409 c-101 -20 -168 -105 -178 -224 -10 -131 38 -228 135
-272 47 -22 65 -25 127 -21 77 5 116 21 160 64 47 48 59 82 64 180 4 77 1 98
-18 142 -28 65 -75 107 -142 127 -57 16 -81 17 -148 4z m114 -109 c69 -26 87
-201 29 -271 -21 -25 -32 -29 -74 -29 -86 0 -116 51 -107 187 4 59 7 69 36 94
34 30 71 37 116 19z"/>
<path d="M16720 17411 c-93 -19 -136 -70 -128 -153 7 -65 32 -90 146 -145 72
-35 93 -50 98 -70 10 -39 -15 -56 -83 -55 -32 1 -78 8 -102 16 -24 9 -47 16
-52 16 -5 0 -9 -24 -9 -54 l0 -55 57 -11 c32 -7 91 -10 133 -8 132 8 190 54
190 153 0 78 -23 106 -127 155 -86 41 -123 65 -123 81 0 4 7 15 16 23 20 21
76 20 140 -2 l52 -18 20 47 20 48 -27 10 c-64 26 -154 35 -221 22z"/>
<path d="M17890 17413 c-40 -6 -110 -34 -110 -43 0 -14 33 -80 39 -80 3 0 28
7 55 15 104 31 166 9 166 -59 l0 -33 -94 -5 c-158 -8 -219 -54 -220 -163 -1
-95 60 -155 154 -155 64 0 113 16 140 45 30 32 39 32 51 -5 10 -28 15 -30 60
-30 l49 0 0 183 c0 100 -4 198 -10 216 -26 91 -139 137 -280 114z m150 -316
c0 -52 -21 -84 -67 -103 -50 -22 -113 5 -113 47 0 62 48 92 153 98 25 1 27 -1
27 -42z"/>
<path d="M19263 17410 c-23 -5 -55 -16 -71 -24 l-30 -16 19 -40 c11 -22 23
-40 27 -40 4 0 29 7 56 15 100 30 166 7 166 -59 l0 -33 -95 -5 c-163 -9 -232
-64 -221 -177 9 -101 67 -145 179 -138 58 4 74 9 107 36 21 17 41 31 43 31 3
0 10 -13 17 -30 11 -28 16 -30 61 -30 l49 0 0 173 c-1 237 -13 281 -94 321
-44 22 -149 30 -213 16z m167 -314 c0 -54 -27 -92 -76 -105 -38 -11 -59 -6
-86 17 -37 32 -9 105 45 116 12 3 31 7 42 9 11 3 32 5 48 6 25 1 27 -1 27 -43z"/>
<path d="M19956 17410 c-16 -5 -48 -28 -71 -50 l-42 -41 -12 45 -11 46 -50 0
-50 0 0 -255 0 -255 64 0 64 0 4 153 c3 123 7 157 22 179 22 34 73 58 124 58
l39 0 7 56 c3 30 4 60 1 65 -7 11 -49 10 -89 -1z"/>
<path d="M20902 17409 c-75 -14 -143 -78 -163 -152 -18 -66 -13 -179 9 -229
26 -60 77 -106 136 -123 58 -18 162 -18 226 -2 l45 12 5 53 c3 28 3 52 -1 52
-4 0 -26 -7 -49 -15 -58 -21 -154 -19 -191 2 -29 17 -59 67 -59 97 0 14 20 16
165 16 l165 0 0 68 c0 120 -56 198 -160 221 -52 12 -69 12 -128 0z m133 -114
c14 -13 25 -31 25 -39 0 -8 3 -21 6 -30 5 -14 -7 -16 -95 -16 -100 0 -101 0
-101 24 0 14 12 38 26 55 22 26 33 31 70 31 34 0 51 -6 69 -25z"/>
<path d="M10440 17213 c0 -240 9 -270 86 -305 70 -30 161 -22 214 21 21 17 41
31 44 31 2 0 7 -13 11 -30 6 -29 9 -30 61 -30 l54 0 0 255 0 256 -67 -3 -68
-3 -5 -170 c-4 -140 -8 -176 -22 -198 -22 -33 -84 -52 -123 -37 -45 17 -55 60
-55 245 l0 165 -65 0 -65 0 0 -197z"/>
<path d="M13250 17155 l0 -255 70 0 70 0 0 255 0 255 -70 0 -70 0 0 -255z"/>
<path d="M18275 17383 c3 -14 35 -127 71 -250 35 -124 64 -227 64 -229 0 -2
33 -4 74 -4 63 0 75 3 80 18 8 28 86 371 86 379 0 4 4 3 9 -2 9 -10 91 -352
91 -380 0 -12 15 -15 78 -15 l78 0 69 243 c37 133 70 248 73 255 3 9 -13 12
-61 12 l-65 0 -16 -52 c-8 -29 -27 -105 -41 -168 -15 -63 -30 -128 -34 -145
l-8 -30 -7 40 c-4 22 -23 110 -44 195 l-37 155 -75 0 -75 0 -26 -100 c-15 -55
-35 -142 -44 -193 -12 -61 -21 -89 -26 -80 -5 7 -9 24 -9 38 0 25 -39 193 -66
288 l-15 52 -66 0 -65 0 7 -27z"/>
<path d="M12640 16075 l0 -355 54 0 c49 0 54 2 60 25 7 28 27 32 47 9 23 -28
67 -44 119 -44 122 0 191 92 192 255 1 175 -63 268 -186 268 -57 0 -86 -12
-128 -51 l-28 -26 0 137 0 137 -65 0 -65 0 0 -355z m293 35 c60 -48 63 -205 5
-267 -30 -32 -96 -32 -127 0 -49 53 -47 221 3 264 34 29 84 30 119 3z"/>
<path d="M14655 16416 c-13 -9 -19 -26 -19 -51 0 -44 22 -65 71 -65 40 0 73
30 73 65 0 54 -78 86 -125 51z"/>
<path d="M15960 16410 c-43 -43 -10 -110 53 -110 49 0 71 21 71 65 0 25 -6 42
-19 51 -28 21 -82 17 -105 -6z"/>
<path d="M18300 16075 l0 -355 70 0 70 0 0 355 0 355 -70 0 -70 0 0 -355z"/>
<path d="M19672 16410 c-40 -25 -62 -73 -62 -134 0 -43 -2 -47 -40 -66 -33
-17 -40 -26 -40 -50 0 -26 3 -29 38 -32 l37 -3 3 -202 2 -203 65 0 65 0 2 203
3 202 58 3 57 3 0 49 0 50 -61 0 -62 0 6 37 c8 50 31 65 91 61 l49 -3 15 43
c8 24 11 46 8 50 -4 3 -51 8 -104 10 -85 3 -101 0 -130 -18z"/>
<path d="M15591 16318 c-30 -78 -41 -95 -74 -113 -29 -15 -37 -26 -37 -47 0
-23 5 -27 33 -30 l32 -3 5 -165 c5 -180 11 -198 63 -230 36 -22 145 -28 191
-10 23 8 26 15 26 59 l0 49 -45 -10 c-37 -8 -51 -7 -70 6 -33 22 -36 40 -33
181 l3 120 73 3 73 3 -3 47 -3 47 -72 3 -73 3 0 54 0 55 -40 0 c-33 0 -42 -4
-49 -22z"/>
<path d="M19220 16294 c-11 -25 -20 -50 -20 -55 0 -4 -18 -19 -40 -31 -31 -18
-40 -29 -40 -50 0 -23 5 -27 33 -30 l32 -3 5 -165 c6 -183 12 -205 72 -236 24
-12 50 -15 108 -12 42 2 82 8 88 12 7 4 12 29 12 56 l0 48 -42 -10 c-51 -11
-96 4 -104 36 -2 11 -3 77 -2 146 l3 125 73 3 73 3 -3 47 -3 47 -72 3 -73 3 0
54 0 55 -40 0 c-39 0 -42 -2 -60 -46z"/>
<path d="M9959 16230 c-90 -16 -158 -73 -180 -152 -15 -57 -15 -166 1 -224 17
-60 72 -118 125 -133 59 -16 168 -14 215 5 40 16 40 16 40 70 0 30 -2 54 -5
54 -3 0 -22 -7 -42 -15 -53 -22 -134 -20 -166 6 -70 54 -56 243 20 278 32 15
60 14 117 -3 l47 -14 20 45 c10 24 19 48 19 52 0 22 -143 43 -211 31z"/>
<path d="M10430 16234 c-37 -7 -130 -36 -130 -41 0 -11 41 -83 48 -83 4 0 29
7 56 15 27 8 64 15 83 15 43 0 83 -37 83 -78 l0 -29 -94 -6 c-153 -9 -213 -47
-223 -141 -7 -56 10 -105 48 -142 29 -27 35 -29 114 -29 79 0 85 2 123 33 23
17 43 32 45 32 3 0 10 -13 16 -30 9 -28 13 -30 62 -30 l52 0 -5 193 c-5 224
-14 256 -83 294 -41 22 -144 36 -195 27z m138 -317 c4 -48 -18 -84 -65 -103
-69 -29 -126 13 -109 81 8 30 37 47 96 56 70 10 75 8 78 -34z"/>
<path d="M11095 16225 c-22 -8 -55 -30 -73 -50 -18 -19 -34 -35 -36 -35 -2 0
-9 20 -15 45 l-11 45 -50 0 -50 0 0 -255 0 -255 68 0 67 0 0 148 c0 119 4 153
17 178 21 38 72 64 126 64 l39 0 7 56 c3 30 4 60 1 65 -9 13 -43 11 -90 -6z"/>
<path d="M11660 16233 c-56 -10 -88 -25 -116 -54 -25 -26 -29 -38 -29 -84 0
-76 22 -100 140 -160 84 -42 100 -55 103 -76 2 -15 -4 -32 -14 -40 -22 -18
-116 -15 -173 5 -24 9 -48 16 -53 16 -5 0 -8 -24 -6 -52 3 -51 5 -54 38 -65
19 -7 76 -12 125 -12 148 -1 217 47 219 151 1 77 -21 103 -140 163 -103 52
-124 76 -88 102 25 18 65 16 129 -6 l55 -19 20 46 c23 51 20 55 -40 71 -46 13
-139 20 -170 14z"/>
<path d="M13360 16233 c-56 -10 -88 -25 -115 -53 -24 -25 -29 -39 -29 -84 -1
-77 20 -101 139 -161 84 -42 100 -55 103 -76 2 -15 -4 -32 -14 -40 -22 -18
-116 -15 -173 5 -24 9 -48 16 -53 16 -5 0 -8 -24 -6 -52 3 -52 4 -53 43 -66
60 -20 221 -12 264 13 54 32 74 66 75 129 1 78 -19 101 -139 161 -104 52 -125
76 -89 102 24 18 69 16 132 -6 l52 -18 20 45 c23 51 20 55 -40 71 -46 13 -139
20 -170 14z"/>
<path d="M13879 16230 c-137 -23 -197 -120 -187 -298 5 -95 36 -157 95 -192
53 -32 184 -40 248 -15 l45 17 0 54 c0 30 -2 54 -4 54 -2 0 -20 -7 -39 -15
-53 -22 -138 -20 -169 5 -34 26 -51 97 -42 169 6 45 14 63 39 88 38 38 76 42
145 18 24 -8 44 -14 45 -13 6 9 35 90 35 98 0 22 -141 42 -211 30z"/>
<path d="M14442 16229 c-18 -5 -51 -28 -72 -50 -27 -28 -41 -37 -44 -28 -2 8
-8 28 -13 44 -9 27 -14 30 -56 33 l-47 3 0 -255 0 -256 65 0 65 0 0 140 c0
100 4 151 14 175 20 46 69 75 129 75 l48 0 -3 63 c-3 58 -5 62 -28 64 -14 1
-40 -3 -58 -8z"/>
<path d="M15195 16235 c-5 -2 -22 -6 -37 -9 -15 -4 -43 -20 -62 -36 l-34 -31
-12 36 c-11 34 -13 35 -66 35 l-54 0 0 -370 0 -370 71 0 72 0 -5 140 c-3 77
-2 140 2 140 4 0 14 -7 21 -17 40 -48 148 -57 215 -18 135 79 133 409 -4 479
-29 14 -90 27 -107 21z m24 -121 c32 -23 51 -73 51 -136 0 -113 -30 -158 -105
-158 -32 0 -47 6 -66 26 -22 24 -24 33 -24 131 0 102 1 105 28 129 33 28 82
32 116 8z"/>
<path d="M16397 16230 c-66 -12 -120 -50 -154 -107 -26 -44 -28 -56 -28 -148
0 -83 4 -107 22 -140 47 -87 114 -125 220 -125 155 1 243 97 243 265 0 183
-123 287 -303 255z m125 -129 c32 -28 33 -32 36 -118 3 -79 1 -92 -20 -122
-42 -62 -124 -62 -165 -1 -19 27 -23 47 -23 107 0 116 30 161 107 162 23 1 43
-8 65 -28z"/>
<path d="M17057 16226 c-26 -7 -61 -25 -76 -40 -30 -29 -34 -28 -45 17 -6 25
-10 27 -56 27 l-50 0 0 -255 0 -255 64 0 64 0 4 163 c3 126 7 169 20 193 31
57 111 72 153 29 25 -24 25 -26 25 -205 l0 -180 71 0 71 0 -4 203 c-3 189 -4
204 -26 238 -38 62 -128 89 -215 65z"/>
<path d="M17965 16235 c-5 -2 -22 -6 -37 -9 -15 -4 -43 -20 -62 -36 l-34 -31
-12 36 c-11 34 -13 35 -66 35 l-54 0 0 -370 0 -370 71 0 72 0 -5 140 c-3 77
-2 140 2 140 4 0 14 -7 21 -17 38 -45 150 -57 208 -22 45 27 67 55 85 108 51
146 11 327 -82 375 -29 14 -90 27 -107 21z m28 -125 c63 -50 60 -246 -4 -280
-36 -20 -94 -12 -120 16 -22 24 -24 33 -24 131 0 102 1 105 28 129 35 30 85
31 120 4z"/>
<path d="M18710 16227 c-30 -7 -65 -19 -78 -25 l-22 -13 20 -39 c11 -22 24
-40 28 -40 4 0 29 7 56 15 27 8 64 15 83 15 44 0 83 -37 83 -80 l0 -30 -60 0
c-76 0 -156 -17 -196 -41 -87 -53 -84 -197 6 -257 30 -21 45 -23 107 -20 63 3
76 7 112 36 22 17 42 32 44 32 3 0 10 -13 16 -30 9 -28 13 -30 60 -30 l51 0 0
168 c-1 240 -13 283 -92 324 -46 24 -148 31 -218 15z m168 -310 c4 -48 -18
-84 -65 -103 -69 -29 -126 13 -109 81 8 30 37 47 96 56 70 10 75 8 78 -34z"/>
<path d="M20113 16230 c-58 -12 -95 -33 -131 -74 -39 -45 -55 -101 -55 -193 0
-149 84 -243 222 -251 37 -2 86 1 110 8 57 15 125 83 142 142 17 57 17 173 0
221 -37 108 -163 173 -288 147z m127 -125 c30 -27 43 -81 38 -155 -6 -78 -27
-116 -73 -129 -47 -13 -82 -3 -110 30 -30 36 -39 83 -32 156 6 60 27 99 60
113 31 14 95 5 117 -15z"/>
<path d="M20775 16225 c-22 -8 -55 -31 -72 -51 l-32 -37 -10 24 c-5 13 -10 33
-12 44 -4 17 -12 20 -54 20 l-50 0 -3 -252 -2 -253 70 0 70 0 0 148 c0 97 4
155 13 172 20 39 74 70 123 70 41 0 43 2 49 33 4 19 5 47 3 63 -4 35 -32 41
-93 19z"/>
<path d="M21235 16235 c-5 -2 -22 -6 -37 -9 -15 -4 -43 -20 -63 -37 l-35 -31
-10 27 c-5 14 -10 31 -10 36 0 5 -22 9 -50 9 l-50 0 0 -255 0 -255 65 0 65 0
0 148 c0 81 5 164 10 184 21 74 103 103 151 52 23 -25 24 -31 27 -205 l4 -179
63 0 63 0 4 163 c3 141 6 166 23 197 36 61 121 67 150 10 12 -23 15 -67 15
-200 l0 -170 68 0 68 0 -2 200 c-2 171 -5 206 -21 237 -26 53 -70 76 -147 76
-67 0 -95 -11 -138 -51 l-27 -25 -30 31 c-17 17 -44 33 -61 36 -59 12 -85 15
-95 11z"/>
<path d="M12010 16048 c0 -101 5 -201 11 -223 21 -76 79 -115 171 -115 59 0
130 28 146 57 12 20 28 10 34 -22 3 -17 12 -21 56 -23 l52 -3 0 255 0 256 -65
0 -65 0 0 -137 c-1 -153 -11 -217 -41 -250 -39 -40 -125 -37 -146 6 -4 9 -10
97 -13 196 l-5 180 -67 3 -68 3 0 -183z"/>
<path d="M14640 15975 l0 -255 65 0 65 0 0 255 0 255 -65 0 -65 0 0 -255z"/>
<path d="M15950 15975 l0 -255 65 0 65 0 0 255 0 255 -65 0 -65 0 0 -255z"/>
<path d="M11030 14595 l0 -175 35 0 35 0 0 70 0 70 60 0 60 0 0 30 0 30 -60 0
-60 0 0 45 0 45 65 0 65 0 0 30 0 30 -100 0 -100 0 0 -175z"/>
<path d="M11307 14763 c-4 -3 -7 -82 -7 -175 l0 -168 40 0 40 0 0 175 0 175
-33 0 c-19 0 -37 -3 -40 -7z"/>
<path d="M11470 14595 l0 -175 36 0 36 0 -4 125 c-2 69 1 124 5 122 4 -1 39
-56 77 -122 l68 -120 51 -3 51 -3 0 175 0 176 -36 0 -35 0 3 -125 c2 -69 0
-125 -4 -125 -4 0 -39 56 -79 125 l-72 125 -48 0 -49 0 0 -175z"/>
<path d="M11880 14596 l0 -176 82 0 c108 0 158 23 189 86 27 57 24 150 -7 191
-42 56 -68 67 -169 71 l-95 4 0 -176z m185 90 c30 -30 41 -87 26 -137 -15 -48
-44 -69 -98 -69 l-43 0 0 108 c0 60 3 112 7 115 3 4 24 7 45 7 28 0 46 -7 63
-24z"/>
<path d="M12376 14703 c20 -38 47 -87 60 -110 19 -32 24 -57 24 -107 l0 -66
35 0 35 0 0 67 c0 61 4 74 55 169 30 57 55 106 55 109 0 3 -16 5 -35 5 -33 0
-36 -3 -70 -70 -19 -38 -37 -70 -40 -70 -3 0 -21 32 -40 70 -35 69 -36 70 -76
70 l-40 0 37 -67z"/>
<path d="M12764 14756 c-51 -22 -78 -78 -79 -161 0 -119 55 -180 165 -180 109
0 165 61 165 180 -1 122 -49 175 -160 175 -33 -1 -74 -7 -91 -14z m122 -46 c8
0 23 -15 35 -32 28 -46 23 -148 -9 -180 -30 -31 -94 -31 -124 -1 -27 27 -37
118 -18 164 14 32 63 62 88 54 8 -3 20 -5 28 -5z"/>
<path d="M13100 14634 c0 -109 3 -142 17 -164 42 -72 180 -77 237 -9 25 30 26
35 26 170 l0 139 -35 0 -35 0 0 -127 c0 -71 -4 -133 -8 -139 -25 -38 -103 -40
-122 -4 -6 10 -10 75 -10 144 l0 126 -35 0 -35 0 0 -136z"/>
<path d="M13480 14596 l0 -176 35 0 35 0 0 65 c0 61 1 65 23 65 17 0 32 -16
62 -65 38 -61 42 -65 78 -65 20 0 37 3 37 6 0 3 -20 34 -45 68 -25 35 -45 66
-45 69 0 3 14 19 30 35 32 33 39 72 19 115 -17 38 -49 50 -141 55 l-88 4 0
-176z m155 94 c15 -17 16 -24 7 -45 -12 -25 -51 -41 -77 -31 -10 4 -15 20 -15
51 0 44 0 45 33 45 21 0 41 -8 52 -20z"/>
<path d="M13940 14596 l0 -176 82 0 c107 0 158 23 187 84 28 57 28 136 0 186
-32 57 -69 74 -176 78 l-93 4 0 -176z m171 104 c26 -15 49 -62 49 -105 0 -43
-23 -90 -49 -105 -11 -5 -38 -10 -60 -10 l-41 0 0 108 c0 60 3 112 7 115 10
11 72 8 94 -3z"/>
<path d="M14310 14596 l0 -176 40 0 40 0 0 65 c0 58 2 65 20 65 13 0 33 -21
61 -65 39 -62 43 -65 80 -65 l40 0 -51 75 -50 74 24 17 c53 34 54 120 2 158
-22 17 -46 22 -117 24 l-89 4 0 -176z m151 104 c30 -16 26 -68 -7 -80 -54 -21
-64 -15 -64 40 0 47 2 50 26 50 14 0 34 -5 45 -10z"/>
<path d="M14648 14595 l-3 -175 103 0 103 0 -3 28 c-3 26 -6 27 -65 30 l-63 3
0 44 0 44 58 3 c54 3 57 4 60 31 3 27 3 27 -57 27 l-61 0 0 40 0 39 63 3 c59
3 62 4 65 31 l3 27 -100 0 -100 0 -3 -175z"/>
<path d="M14948 14602 c-32 -92 -58 -171 -58 -175 0 -5 16 -7 36 -5 32 3 38 8
48 38 11 35 11 35 78 38 l67 3 12 -41 c12 -38 14 -40 52 -40 27 0 38 4 35 13
-3 6 -31 85 -63 175 l-58 162 -46 0 -46 0 -57 -168z m132 32 c11 -36 20 -68
20 -70 0 -2 -20 -4 -45 -4 -25 0 -45 3 -45 6 0 20 36 134 42 134 4 0 16 -30
28 -66z"/>
<path d="M15270 14596 l0 -176 36 0 37 0 -5 131 c-3 72 -2 127 2 122 6 -6 41
-113 76 -236 4 -14 14 -17 41 -15 l36 3 41 127 c23 71 44 128 47 128 3 0 4
-58 1 -130 l-5 -130 37 0 36 0 0 176 0 175 -51 -3 -51 -3 -41 -127 c-22 -71
-44 -128 -47 -128 -4 0 -25 57 -46 128 l-40 127 -52 3 -52 3 0 -175z"/>
<path d="M15960 14763 c-24 -9 -61 -46 -78 -78 -24 -45 -22 -152 3 -194 34
-58 68 -76 140 -75 38 0 70 6 80 14 19 15 16 56 -4 52 -80 -17 -100 -15 -130
16 -28 27 -31 37 -31 89 0 97 30 131 110 123 56 -6 63 -4 71 18 7 19 4 24 -17
32 -27 11 -119 12 -144 3z"/>
<path d="M16269 14743 c-27 -69 -109 -307 -109 -315 0 -5 17 -8 37 -6 32 3 38
8 48 38 12 35 12 35 78 38 l66 3 12 -41 c11 -38 14 -40 51 -40 21 0 38 2 38 4
0 4 -83 240 -107 304 -15 41 -17 42 -60 42 -38 0 -45 -3 -54 -27z m80 -105
c12 -34 21 -66 21 -70 0 -4 -20 -8 -45 -8 -25 0 -45 3 -45 6 0 19 35 134 41
134 4 0 17 -28 28 -62z"/>
<path d="M16547 14763 c-4 -3 -7 -82 -7 -175 l0 -168 40 0 40 0 0 65 c0 61 1
65 23 65 17 0 31 -16 60 -65 37 -63 39 -65 78 -65 45 0 46 -5 -13 82 -44 65
-45 73 -18 88 10 6 24 28 31 49 24 82 -35 131 -157 131 -39 0 -74 -3 -77 -7z
m144 -63 c30 -16 26 -68 -7 -80 -54 -21 -64 -15 -64 40 0 47 2 50 26 50 14 0
34 -5 45 -10z"/>
<path d="M16970 14760 c0 -6 19 -85 41 -175 l41 -165 43 0 42 0 27 108 c41
161 39 160 72 21 l29 -124 45 0 44 0 38 144 c57 221 55 201 15 201 l-35 0 -26
-112 c-14 -62 -26 -121 -26 -130 0 -10 -4 -18 -10 -18 -5 0 -10 5 -10 12 0 6
-14 65 -31 130 l-32 118 -33 0 c-31 0 -33 -3 -48 -52 -9 -29 -24 -88 -33 -130
-10 -43 -20 -78 -23 -78 -3 0 -18 59 -35 130 l-29 130 -33 0 c-18 0 -33 -5
-33 -10z"/>
<path d="M17490 14596 l0 -176 40 0 40 0 -2 173 -3 172 -37 3 -38 3 0 -175z"/>
<path d="M17630 14740 c0 -29 2 -30 45 -30 l45 0 0 -145 0 -145 39 0 39 0 0
143 1 142 45 3 c44 3 46 5 46 33 l0 29 -130 0 -130 0 0 -30z"/>
<path d="M17950 14596 l0 -176 40 0 40 0 0 75 0 75 70 0 70 0 0 -75 0 -75 35
0 35 0 0 175 0 175 -35 0 -35 0 0 -70 0 -71 -72 3 -72 3 -1 65 0 65 -37 3 -38
3 0 -175z"/>
<path d="M18470 14594 l0 -176 101 4 c100 3 101 3 131 37 25 28 29 39 24 70
-3 21 -15 44 -30 56 l-25 20 25 22 c28 25 32 68 9 100 -20 29 -73 43 -162 43
l-73 0 0 -176z m170 96 c19 -36 -3 -60 -55 -60 l-45 0 0 40 0 40 45 0 c34 0
47 -5 55 -20z m-2 -132 c7 -7 12 -24 12 -40 0 -23 -6 -29 -39 -39 -57 -17 -71
-8 -71 46 l0 45 43 0 c24 0 48 -5 55 -12z"/>
<path d="M18810 14596 l0 -176 105 0 c105 0 105 0 105 25 0 23 -3 24 -67 27
l-68 3 -5 145 -5 145 -32 3 -33 3 0 -175z"/>
<path d="M19090 14595 l0 -175 35 0 35 0 0 175 0 175 -35 0 -35 0 0 -175z"/>
<path d="M19260 14596 l0 -176 30 0 29 0 3 133 3 132 75 -132 75 -132 48 -1
47 0 0 175 0 175 -30 0 -30 0 0 -132 c0 -80 -4 -128 -9 -122 -5 5 -41 63 -79
129 l-70 120 -46 3 -46 3 0 -175z"/>
<path d="M19670 14595 l0 -175 35 0 34 0 3 67 c4 95 23 96 80 4 41 -68 45 -71
81 -71 44 0 45 -3 -30 113 -24 37 -43 73 -43 80 0 6 25 43 55 81 30 38 55 70
55 72 0 2 -16 4 -35 4 -32 0 -40 -7 -92 -74 -32 -41 -61 -75 -65 -75 -5 -1 -8
33 -8 74 l0 75 -35 0 -35 0 0 -175z"/>
<path d="M20000 14595 l0 -175 100 0 c99 0 100 0 100 25 0 23 -4 24 -62 27
l-63 3 -3 48 -3 47 60 0 61 0 0 30 0 30 -60 0 -60 0 0 40 0 40 65 0 65 0 0 30
0 30 -100 0 -100 0 0 -175z"/>
<path d="M20280 14595 l0 -175 35 0 35 0 0 64 c0 49 4 65 16 70 23 9 30 2 75
-70 37 -58 44 -64 75 -64 19 0 34 2 34 5 0 3 -21 36 -46 74 l-45 68 30 31 c24
23 31 39 31 69 0 76 -46 103 -172 103 l-68 0 0 -175z m158 103 c34 -34 -1 -91
-52 -86 -29 3 -31 5 -34 51 l-3 47 38 0 c22 0 44 -5 51 -12z"/>
<path d="M12910 13211 c0 -82 0 -84 19 -67 18 17 20 15 36 -28 10 -25 21 -46
26 -46 17 0 19 21 4 56 -19 46 -20 42 10 46 25 3 23 6 -35 63 l-60 59 0 -83z"/>
<path d="M9953 12885 c-101 -31 -170 -93 -216 -192 -21 -47 -22 -58 -22 -373
l0 -325 33 -67 c36 -73 86 -123 161 -160 l46 -23 4380 0 4380 0 46 21 c91 42
154 116 183 214 23 79 23 602 0 680 -21 71 -64 133 -122 175 -96 71 315 65
-4486 64 -3561 0 -4349 -3 -4383 -14z m8789 -18 c70 -27 132 -88 170 -165 l33
-67 3 -286 c3 -235 1 -298 -12 -348 -26 -104 -89 -180 -185 -224 l-46 -22
-4340 -3 c-3945 -3 -4345 -1 -4400 13 -107 28 -199 117 -226 218 -6 23 -9 161
-7 360 3 310 4 324 25 363 47 88 117 145 212 170 36 10 968 12 4386 11 4175
-2 4342 -3 4387 -20z"/>
<path d="M11204 12305 c0 -82 1 -130 3 -105 8 110 28 150 77 150 44 0 56 -24
56 -111 0 -46 4 -79 10 -79 17 0 12 152 -6 178 -19 27 -78 30 -106 6 -22 -20
-26 -12 -31 61 -2 28 -3 -17 -3 -100z"/>
<path d="M11540 12304 c0 -126 2 -145 14 -135 11 9 20 9 35 2 27 -15 73 -14
95 2 38 28 38 146 -1 175 -18 13 -72 12 -105 -2 -16 -7 -18 -2 -18 48 0 31 -4
56 -10 56 -6 0 -10 -55 -10 -146z m136 25 c13 -15 19 -36 19 -69 0 -84 -68
-122 -114 -64 -63 80 28 206 95 133z"/>
<path d="M12840 12394 c0 -50 -2 -55 -17 -48 -43 18 -91 16 -112 -5 -30 -30
-30 -132 -1 -161 22 -22 70 -26 103 -9 16 9 22 9 25 0 2 -6 8 -11 13 -11 5 0
9 64 9 145 0 90 -4 145 -10 145 -5 0 -10 -25 -10 -56z m-21 -70 c28 -36 29
-106 1 -134 -11 -11 -33 -20 -48 -20 -43 0 -66 32 -66 90 0 34 6 56 19 70 26
29 69 26 94 -6z"/>
<path d="M13160 12305 c0 -90 4 -145 10 -145 6 0 10 55 10 145 0 90 -4 145
-10 145 -6 0 -10 -55 -10 -145z"/>
<path d="M14050 12305 c0 -90 4 -145 10 -145 6 0 10 17 10 39 0 22 6 44 15 51
17 14 18 13 67 -57 13 -18 29 -33 35 -33 7 0 -5 24 -27 53 -22 28 -40 56 -40
62 0 5 17 26 37 47 20 21 32 38 26 38 -5 0 -32 -23 -58 -51 -26 -28 -49 -48
-52 -45 -3 3 -5 46 -4 96 1 58 -2 90 -8 90 -7 0 -11 -50 -11 -145z"/>
<path d="M16622 12395 c5 -59 -2 -74 -22 -50 -7 9 -29 15 -50 15 -52 0 -80
-35 -80 -100 0 -63 28 -100 76 -100 19 0 43 6 54 13 17 10 22 9 30 -3 6 -10
10 35 10 133 0 102 -3 147 -11 147 -8 0 -10 -18 -7 -55z m-22 -65 c15 -15 20
-33 20 -70 0 -57 -24 -90 -65 -90 -41 0 -65 33 -65 90 0 57 24 90 65 90 14 0
34 -9 45 -20z"/>
<path d="M10187 12412 c-37 -40 -17 -90 45 -117 81 -35 97 -66 57 -106 -19
-19 -29 -21 -78 -15 -38 4 -51 3 -41 -4 8 -5 37 -10 63 -10 38 0 53 5 72 25
46 45 29 82 -56 123 -47 23 -54 31 -57 59 -4 41 24 58 85 49 28 -4 42 -2 38 4
-3 6 -30 10 -59 10 -39 0 -57 -5 -69 -18z"/>
<path d="M12100 12295 c0 -93 3 -135 11 -135 8 0 10 37 7 125 -2 69 -1 125 2
125 6 0 33 -63 80 -192 12 -32 25 -58 29 -58 9 0 25 36 71 155 18 44 36 84 41
89 5 6 9 -39 9 -117 0 -78 4 -127 10 -127 6 0 10 52 10 136 0 134 0 135 -22
132 -18 -2 -29 -23 -63 -112 -23 -61 -46 -111 -51 -113 -5 -2 -16 14 -23 34
-57 159 -73 193 -92 193 -18 0 -19 -9 -19 -135z"/>
<path d="M13470 12295 c0 -88 4 -135 11 -135 6 0 9 42 8 120 -1 66 2 120 7
121 4 0 28 -54 53 -120 25 -67 50 -120 55 -118 5 2 29 55 55 119 25 64 50 120
54 124 4 4 7 -50 7 -119 0 -78 4 -127 10 -127 6 0 10 52 10 135 0 126 -1 135
-19 135 -15 0 -28 -23 -60 -105 -23 -57 -41 -109 -41 -116 0 -6 -5 -9 -12 -7
-7 3 -32 55 -56 116 -34 89 -48 112 -63 112 -18 0 -19 -9 -19 -135z"/>
<path d="M15100 12295 c0 -83 4 -135 10 -135 6 0 10 24 10 53 0 51 12 77 35
77 6 0 33 -29 59 -65 26 -36 52 -65 57 -65 13 0 14 -1 -45 80 l-54 75 49 54
c27 30 46 57 44 60 -3 3 -33 -25 -66 -62 -33 -37 -65 -67 -70 -67 -5 0 -9 29
-9 65 0 37 -4 65 -10 65 -6 0 -10 -52 -10 -135z"/>
<path d="M10416 12341 c-42 -46 -41 -128 2 -161 26 -21 106 -28 117 -10 4 6
-5 7 -24 4 -46 -9 -79 3 -96 36 -24 47 -21 50 60 50 72 0 75 1 75 24 0 13 -9
35 -21 50 -25 32 -86 37 -113 7z m100 -16 c27 -42 13 -56 -53 -53 -52 3 -58 5
-55 23 10 56 78 75 108 30z"/>
<path d="M10640 12350 c-10 -7 -1 -8 30 -4 33 4 49 2 56 -7 15 -19 24 -59 14
-59 -4 0 -6 -17 -3 -39 4 -32 2 -41 -18 -55 -13 -9 -33 -16 -46 -16 -21 0 -53
23 -53 39 0 19 29 43 60 51 l35 8 -30 1 c-42 1 -75 -24 -75 -58 0 -15 5 -32
12 -39 17 -17 70 -15 94 3 25 19 32 19 37 -2 3 -10 5 21 6 69 1 66 -3 90 -15
102 -17 18 -81 21 -104 6z"/>
<path d="M10840 12260 c0 -60 4 -100 10 -100 6 0 10 27 10 60 0 76 20 116 63
129 27 8 29 9 8 10 -14 1 -35 -9 -48 -21 l-23 -21 0 21 c0 12 -4 22 -10 22 -6
0 -10 -40 -10 -100z"/>
<path d="M11022 12337 c-17 -18 -22 -36 -22 -80 0 -74 21 -97 85 -97 25 0 45
4 45 8 0 4 -15 6 -33 4 -53 -6 -82 24 -82 88 0 64 29 95 82 87 18 -3 33 -2 33
4 0 5 -19 9 -43 9 -33 0 -49 -6 -65 -23z"/>
<path d="M11760 12357 c0 -2 18 -48 40 -102 22 -54 40 -104 40 -110 0 -21 -39
-63 -63 -68 -16 -3 -13 -5 10 -6 27 -1 35 4 48 30 32 60 103 260 92 256 -6 -2
-24 -42 -41 -90 -17 -48 -34 -87 -37 -87 -4 0 -21 41 -38 90 -18 50 -37 90
-42 90 -5 0 -9 -2 -9 -3z"/>
<path d="M12470 12335 c-18 -19 -24 -37 -24 -76 -1 -44 3 -54 27 -75 38 -32
90 -32 122 1 20 19 25 34 25 75 0 41 -5 56 -25 75 -34 35 -93 34 -125 0z m110
-5 c15 -15 20 -33 20 -70 0 -81 -56 -116 -111 -71 -31 25 -34 108 -5 140 24
27 70 27 96 1z"/>
<path d="M12961 12341 c-39 -39 -39 -123 -1 -161 22 -22 93 -28 120 -10 10 7
0 8 -32 4 -41 -6 -49 -3 -72 19 -14 14 -26 35 -26 47 0 18 6 20 70 20 l70 0 0
30 c0 62 -85 95 -129 51z m93 -7 c9 -8 16 -27 16 -40 0 -24 -2 -25 -57 -22
-65 3 -77 19 -43 56 24 26 62 29 84 6z"/>
<path d="M13846 12351 c-4 -5 11 -7 32 -4 53 7 70 -12 70 -79 0 -29 -5 -59
-10 -65 -7 -9 -7 -13 1 -13 6 0 11 -7 11 -15 0 -8 5 -15 10 -15 6 0 10 33 10
78 0 100 -14 122 -75 122 -24 0 -46 -4 -49 -9z"/>
<path d="M14271 12331 c-14 -19 -21 -45 -21 -75 0 -64 31 -96 92 -96 24 0 50
5 58 10 10 7 1 8 -30 4 -37 -5 -50 -2 -72 16 -17 13 -28 31 -28 46 0 23 2 24
71 24 l72 0 -6 36 c-7 44 -31 63 -79 64 -29 0 -41 -6 -57 -29z m101 2 c10 -9
18 -27 18 -40 0 -22 -4 -23 -60 -23 -53 0 -60 2 -60 20 0 26 34 60 62 60 12 0
30 -7 40 -17z"/>
<path d="M14607 12342 c-66 -72 -30 -182 60 -182 52 0 83 36 83 98 0 70 -27
102 -84 102 -28 0 -48 -6 -59 -18z m93 -2 c46 -25 42 -140 -5 -162 -78 -35
-132 67 -79 150 16 24 52 29 84 12z"/>
<path d="M14833 12260 c0 -101 0 -102 7 -33 7 77 19 99 65 119 25 11 27 13 8
14 -12 0 -28 -7 -37 -15 -19 -20 -33 -19 -39 3 -3 9 -5 -30 -4 -88z"/>
<path d="M15351 12334 c-15 -19 -21 -41 -21 -76 0 -67 30 -98 94 -98 25 0 48
5 51 10 4 7 -2 9 -19 4 -54 -13 -106 17 -106 62 0 23 3 24 70 24 67 0 70 1 70
24 0 13 -9 35 -21 50 -16 20 -29 26 -59 26 -30 0 -43 -6 -59 -26z m101 -1 c10
-9 18 -27 18 -40 0 -22 -4 -23 -60 -23 -51 0 -60 3 -60 18 0 52 63 81 102 45z"/>
<path d="M15570 12264 c22 -53 40 -107 40 -118 0 -32 -27 -64 -58 -69 -25 -4
-25 -4 5 -6 24 -1 37 5 48 22 19 29 105 260 99 266 -8 8 -17 -9 -44 -91 -25
-74 -50 -112 -50 -76 0 24 -57 162 -68 166 -6 2 7 -40 28 -94z"/>
<path d="M15744 12343 c3 -10 8 -31 12 -48 18 -84 37 -135 49 -135 9 0 24 32
40 85 14 47 29 85 33 85 4 0 19 -37 32 -82 34 -114 51 -115 78 -6 11 46 23 91
27 101 4 9 3 17 -3 17 -6 0 -20 -38 -33 -85 -12 -47 -25 -85 -28 -85 -4 0 -19
38 -35 85 -15 47 -33 85 -39 85 -7 0 -23 -37 -36 -83 -13 -45 -28 -86 -32 -91
-9 -11 -10 -10 -34 97 -10 42 -22 77 -27 77 -5 0 -7 -8 -4 -17z"/>
<path d="M16103 12352 c-22 -14 -45 -84 -38 -118 13 -69 102 -98 150 -49 20
19 25 34 25 73 0 69 -27 102 -83 102 -23 0 -47 -4 -54 -8z m97 -22 c15 -15 20
-33 20 -70 0 -80 -56 -116 -111 -71 -30 24 -33 109 -4 141 23 26 69 26 95 0z"/>
<path d="M16310 12260 c0 -114 15 -134 22 -30 6 75 17 96 63 116 l30 13 -28 1
c-16 0 -30 -6 -33 -15 -4 -8 -12 -15 -20 -15 -8 0 -14 7 -14 15 0 8 -4 15 -10
15 -6 0 -10 -40 -10 -100z"/>
<path d="M13850 12263 c-38 -14 -51 -60 -24 -87 17 -18 71 -21 94 -6 10 6 3 8
-22 3 -85 -13 -96 71 -12 87 34 7 35 8 9 8 -16 0 -37 -2 -45 -5z"/>
<path d="M13256 12159 c-9 -48 -6 -57 9 -24 16 35 19 55 6 55 -5 0 -11 -14
-15 -31z"/>
<path d="M19547 12889 c-93 -22 -178 -95 -222 -191 l-26 -56 3 -334 c3 -327 3
-334 27 -380 32 -66 93 -125 159 -156 l57 -27 1030 0 1030 0 55 26 c66 32 123
86 158 154 l27 50 0 345 0 345 -27 50 c-32 62 -103 129 -166 158 l-47 22
-1010 2 c-569 1 -1026 -3 -1048 -8z m1089 -284 c92 -45 145 -133 146 -242 0
-48 -6 -76 -24 -113 -21 -42 -22 -50 -9 -50 20 0 161 -139 161 -159 0 -21 -50
-71 -70 -71 -10 0 -53 38 -97 83 l-80 84 -39 -20 c-47 -25 -149 -28 -208 -8
-49 17 -121 82 -149 136 -31 57 -31 183 0 240 40 75 107 126 198 149 39 10
120 -4 171 -29z"/>
<path d="M20444 12511 c-62 -28 -89 -73 -89 -146 0 -47 5 -67 23 -93 90 -125
292 -63 292 90 0 59 -19 98 -63 132 -46 35 -110 42 -163 17z"/>
<path d="M10780 10324 c-86 -17 -91 -18 -184 -65 -135 -67 -256 -210 -306
-359 -41 -122 -40 -276 2 -405 37 -114 137 -246 236 -311 98 -66 151 -87 282
-113 52 -10 103 -22 113 -26 11 -5 17 -3 17 7 0 11 20 18 69 26 221 37 410
200 482 417 7 22 17 46 23 53 13 17 12 287 -1 304 -6 7 -13 25 -17 41 -18 78
-104 217 -167 273 -93 81 -211 137 -336 159 -101 18 -114 18 -213 -1z"/>
<path d="M18458 9825 c-20 -14 -39 -34 -43 -45 -6 -17 -15 -20 -78 -21 -40 0
-81 -4 -92 -8 -18 -7 -15 -10 19 -25 21 -9 41 -16 44 -16 3 0 43 -14 89 -31
46 -18 86 -29 90 -26 3 4 -6 22 -21 41 -14 19 -26 39 -26 45 0 5 27 31 60 57
33 26 60 49 60 50 0 15 -72 -1 -102 -21z"/>
<path d="M16450 9430 l0 -260 -865 0 -865 0 0 -1472 c0 -977 -3 -1475 -10
-1482 -10 -10 -31 8 -275 246 l-110 108 -1108 0 -1108 1 -76 -91 c-55 -66 -78
-88 -84 -78 -5 7 -9 77 -9 156 l0 143 -117 -3 -118 -3 -3 -306 -2 -305 -330
-392 -330 -392 0 -1246 c0 -685 -2 -1249 -5 -1254 -4 -6 -21 -10 -39 -10 -95
0 -194 -75 -226 -171 l-17 -54 -99 -3 c-54 -2 -109 0 -121 3 l-23 5 0 430 0
429 53 3 52 3 3 128 3 128 -126 -3 -126 -3 -2 -122 c-2 -138 -5 -133 74 -133
l49 0 0 -424 c0 -348 -2 -426 -14 -435 -9 -8 -73 -11 -207 -9 l-194 3 -3 148
-3 147 86 0 c69 0 85 3 85 15 0 13 -62 15 -500 15 -431 0 -500 -2 -500 -15 0
-11 18 -15 78 -17 l77 -3 3 -134 c2 -90 -1 -138 -9 -147 -9 -11 -53 -14 -210
-14 -109 0 -200 3 -202 7 -3 5 -7 120 -9 258 l-3 249 25 14 25 14 -27 -6 c-28
-6 -28 -6 -28 46 0 29 -5 60 -10 68 -6 10 -10 -84 -10 -275 -1 -159 -4 -308
-8 -330 l-7 -40 -203 -3 c-123 -1 -202 -6 -202 -12 0 -7 2526 -10 7253 -9
3988 1 7239 5 7222 9 -16 4 -53 8 -81 9 -55 1 -67 10 -78 54 -11 46 -72 104
-132 127 -65 24 -88 25 -144 5 -42 -15 -44 -14 -103 15 -139 69 -288 6 -337
-142 l-17 -53 -149 -2 c-82 -2 -155 1 -163 6 -10 7 -14 84 -19 379 l-5 371 32
18 c51 28 66 41 59 48 -3 4 -22 -1 -42 -10 -19 -9 -40 -14 -45 -10 -8 4 -11
159 -11 478 0 280 -4 467 -9 462 -5 -6 -12 -343 -16 -770 -4 -418 -10 -807
-14 -865 l-6 -105 -229 0 -229 0 -32 60 c-36 68 -85 108 -157 127 -40 10 -55
9 -102 -6 l-56 -17 -44 26 c-24 14 -66 28 -94 32 -87 10 -193 -40 -228 -109
-27 -52 -34 -16 -34 184 l0 186 28 21 27 20 -30 -2 -30 -2 -5 105 c-3 66 -8
-27 -12 -254 -5 -278 -10 -361 -20 -368 -7 -4 -130 -7 -273 -5 l-260 2 -3 24
c-2 14 -11 36 -20 50 -16 23 -17 176 -20 1928 l-2 1903 -325 0 -325 0 0 155 0
155 -170 0 -170 0 0 -155 0 -155 -730 0 -730 0 -2 1348 -3 1347 -323 5 -323 5
-2 255 -2 255 -167 3 -168 2 0 -260z m-1090 -980 l0 -150 -150 0 -150 0 0 150
0 150 150 0 150 0 0 -150z m475 0 l0 -145 -150 0 -150 0 -3 134 c-1 74 0 141
2 148 4 11 38 13 153 11 l148 -3 0 -145z m475 0 l0 -150 -150 0 -150 0 0 150
0 150 150 0 150 0 0 -150z m-940 -670 l0 -150 -150 0 -150 0 0 150 0 150 150
0 150 0 0 -150z m470 0 l0 -151 -147 3 -148 3 -3 134 c-1 74 0 141 2 148 4 10
41 13 151 13 l145 0 0 -150z m478 -2 l3 -148 -151 0 -150 0 0 150 0 151 148
-3 147 -3 3 -147z m-943 -668 l0 -145 -150 0 -150 0 -3 134 c-1 74 0 141 2
148 4 11 38 13 153 11 l148 -3 0 -145z m475 0 l0 -150 -150 0 -150 0 0 150 0
150 150 0 150 0 0 -150z m475 0 l0 -145 -150 0 -150 0 -3 134 c-1 74 0 141 2
148 4 11 38 13 153 11 l148 -3 0 -145z m-940 -670 l0 -145 -150 0 -150 0 -3
134 c-1 74 0 141 2 148 4 11 38 13 153 11 l148 -3 0 -145z m475 0 l0 -150
-150 0 -150 0 0 150 0 150 150 0 150 0 0 -150z m470 0 l0 -151 -147 3 -148 3
-3 134 c-1 74 0 141 2 148 4 10 41 13 151 13 l145 0 0 -150z m-935 -670 l0
-145 -150 0 -150 0 -3 134 c-1 74 0 141 2 148 4 11 38 13 153 11 l148 -3 0
-145z m473 -3 l3 -148 -153 3 -153 3 -3 134 c-1 74 0 141 2 148 4 11 38 13
153 11 l148 -3 3 -148z m472 3 l0 -150 -150 0 -150 0 0 143 c0 79 3 147 7 150
3 4 71 7 150 7 l143 0 0 -150z m1505 0 l0 -145 -150 0 -150 0 -3 134 c-1 74 0
141 2 148 4 11 38 13 153 11 l148 -3 0 -145z m475 0 l0 -150 -150 0 -150 0 0
143 c0 79 3 147 7 150 3 4 71 7 150 7 l143 0 0 -150z m475 0 l0 -145 -150 0
-150 0 -3 134 c-1 74 0 141 2 148 4 11 38 13 153 11 l148 -3 0 -145z m-3395
-670 l0 -150 -150 0 -150 0 0 143 c0 79 3 147 7 150 3 4 71 7 150 7 l143 0 0
-150z m475 0 l0 -145 -147 -3 -148 -3 0 151 0 151 148 -3 147 -3 0 -145z m475
0 l0 -150 -150 0 -150 0 0 150 0 150 150 0 150 0 0 -150z m1505 0 l0 -145
-150 0 -150 0 -3 134 c-1 74 0 141 2 148 4 11 38 13 153 11 l148 -3 0 -145z
m475 0 l0 -150 -150 0 -150 0 0 150 0 150 150 0 150 0 0 -150z m470 0 l0 -151
-147 3 -148 3 -3 134 c-1 74 0 141 2 148 4 10 41 13 151 13 l145 0 0 -150z
m-7012 -679 c2 -197 -1 -256 -10 -263 -15 -9 -458 -11 -482 -2 -14 5 -16 38
-16 258 0 139 3 256 7 260 4 3 117 5 252 4 l246 -3 3 -254z m690 247 c9 -9 12
-79 12 -255 0 -229 -1 -243 -19 -253 -12 -6 -110 -10 -250 -10 -217 0 -231 1
-241 19 -11 21 -15 467 -4 495 5 14 37 16 248 16 175 0 245 -3 254 -12z m700
-247 c2 -197 -1 -256 -10 -263 -15 -9 -458 -11 -482 -2 -14 5 -16 38 -16 258
0 139 3 256 7 260 4 3 117 5 252 4 l246 -3 3 -254z m2230 7 l3 -148 -151 0
-150 0 0 150 0 151 148 -3 147 -3 3 -147z m477 2 l0 -145 -152 -3 -153 -3 0
144 c0 79 3 147 7 151 4 3 72 5 152 4 l146 -3 0 -145z m473 -2 l3 -148 -151 0
-150 0 0 150 0 151 148 -3 147 -3 3 -147z m1507 2 l0 -145 -152 -3 -153 -3 0
144 c0 79 3 147 7 151 4 3 72 5 152 4 l146 -3 0 -145z m473 -3 l3 -148 -153 3
-153 3 -3 134 c-1 74 0 141 2 148 4 11 38 13 153 11 l148 -3 3 -148z m472 3
l0 -150 -150 0 -150 0 0 143 c0 79 3 147 7 150 3 4 71 7 150 7 l143 0 0 -150z
m-7022 -712 l2 -258 -255 0 -255 0 0 253 c0 140 3 257 7 261 4 3 117 5 252 4
l246 -3 3 -257z m691 248 c8 -9 11 -86 9 -257 l-3 -244 -255 0 -255 0 -3 235
c-1 129 0 245 3 258 l5 22 244 0 c194 0 246 -3 255 -14z m696 -246 l0 -255
-252 -3 -253 -2 0 253 c0 140 3 257 7 261 4 3 117 5 252 4 l246 -3 0 -255z
m2243 38 l3 -148 -151 0 -150 0 0 150 0 151 148 -3 147 -3 3 -147z m472 2 l0
-150 -150 0 -150 0 0 143 c0 79 3 147 7 150 3 4 71 7 150 7 l143 0 0 -150z
m475 0 l0 -145 -147 -3 -148 -3 0 151 0 151 148 -3 147 -3 0 -145z m1505 0 l0
-150 -150 0 -150 0 0 143 c0 79 3 147 7 150 3 4 71 7 150 7 l143 0 0 -150z
m475 0 l0 -145 -144 -3 c-109 -2 -146 1 -153 10 -9 15 -11 249 -2 272 6 14 26
16 153 14 l146 -3 0 -145z m475 0 l0 -150 -150 0 -150 0 0 150 0 150 150 0
150 0 0 -150z m-2932 -917 l-3 -278 -145 0 -145 0 -3 278 -2 277 150 0 150 0
-2 -277z m2460 17 c1 -140 0 -265 -3 -277 -5 -22 -9 -23 -145 -23 -127 0 -140
2 -150 19 -11 21 -15 497 -4 525 6 14 26 16 153 14 l146 -3 3 -255z m-8310
-147 l-3 -148 -285 -3 c-157 -1 -295 0 -307 3 -23 5 -23 8 -23 150 l0 145 310
0 311 0 -3 -147z"/>
<path d="M12182 9567 c-18 -5 -47 -26 -64 -46 -31 -35 -34 -36 -105 -37 -69 0
-116 -17 -82 -28 8 -3 65 -24 127 -47 62 -23 116 -39 119 -35 4 3 -8 23 -24
44 -17 21 -28 43 -25 48 4 6 33 31 64 56 70 56 67 70 -10 45z"/>
<path d="M20774 8615 c-18 -8 -45 -31 -62 -51 -27 -32 -33 -35 -62 -29 -41 9
-122 -3 -118 -17 3 -8 225 -96 246 -98 10 -1 -3 25 -29 54 l-30 35 32 28 c18
15 49 43 68 60 35 32 35 32 11 32 -14 0 -39 -7 -56 -14z"/>
<path d="M12443 8251 c-26 -12 -48 -32 -58 -51 -16 -30 -19 -32 -57 -26 -49 8
-130 -2 -126 -16 3 -8 78 -38 183 -73 22 -7 48 -16 59 -21 17 -7 17 -5 3 23
-9 16 -23 35 -31 42 -9 8 -16 17 -16 22 0 4 27 29 60 55 33 26 60 51 60 55 0
14 -32 10 -77 -10z"/>
<path d="M18289 7559 c-20 -12 -44 -34 -53 -50 -16 -26 -21 -28 -56 -23 -49 8
-136 -4 -123 -17 14 -14 243 -93 250 -86 3 4 -6 22 -21 41 -14 19 -26 39 -26
44 0 5 27 30 60 56 33 26 60 49 60 52 0 12 -60 1 -91 -17z"/>
<path d="M9282 3989 c2 -7 10 -15 17 -17 8 -3 12 1 9 9 -2 7 -10 15 -17 17 -8
3 -12 -1 -9 -9z"/>
<path d="M8944 3510 c0 -102 2 -143 3 -92 2 50 2 134 0 185 -1 50 -3 9 -3 -93z"/>
<path d="M20494 3485 c0 -104 2 -146 3 -92 2 54 2 139 0 190 -1 51 -3 7 -3
-98z"/>
<path d="M8998 3343 c7 -3 16 -2 19 1 4 3 -2 6 -13 5 -11 0 -14 -3 -6 -6z"/>
<path d="M9242 3138 c6 -17 998 -19 998 -3 0 6 -175 11 -501 13 -399 2 -500 0
-497 -10z"/>
<path d="M9240 3055 c0 -13 59 -15 503 -13 328 2 501 6 500 13 -2 6 -180 11
-503 13 -442 2 -500 0 -500 -13z"/>
<path d="M9240 2975 c0 -13 59 -15 503 -13 328 2 501 6 500 13 -2 6 -180 11
-503 13 -442 2 -500 0 -500 -13z"/>
</g>
</svg>
